<mxfile host="app.diagrams.net" modified="2024-02-10T08:37:16.673Z" agent="Mozilla/5.0 (Macintosh; Intel Mac OS X 10_15_7) AppleWebKit/537.36 (KHTML, like Gecko) Chrome/121.0.0.0 Safari/537.36" version="23.1.2" etag="3-pVIK_brq5NAqm8it8C" type="github">
  <diagram name="Page-1" id="Anq3Ur8Cs3t_4ZaljOo4">
    <mxGraphModel>
      <root>
        <mxCell id="0" />
        <mxCell id="1" parent="0" />
      </root>
    </mxGraphModel>
  </diagram>
</mxfile>
